<svg xmlns="http://www.w3.org/2000/svg" version="1" width="150" height="150"><path d="M104.687 56.69c-2.493 23.95-11.582 40.58-30.315 40.58S46.99 82.307 44.057 57.29C41.623 34.94 55.64 15.8 74.372 15.8s32.452 18.494 30.315 40.89z" font-size="12" fill="#ccc" fill-rule="evenodd"/><path d="M92.567 89.605c-1.772 3.874-3.168 12.845 2.298 17.3 9.073 7.39 11.84 9.567 23.447 12.04 25.73 5.486 23.337 19.21 28.212 30.276l-142.256-.118c4.204-10.45 2.238-24.32 28.133-30.715 9.41-2.323 13.265-4.505 21.187-11.37 4.94-4.284 3.94-13.024 2.844-17.748-3.937-.44 37.744-1.13 36.137.335z" fill="#ccc" fill-rule="evenodd"/></svg>